<?xml version="1.0" encoding="UTF-8"?>
<svg version="1.1" xmlns="http://www.w3.org/2000/svg" width="160" height="160">
<path d="M0 0 C52.8 0 105.6 0 160 0 C160 52.8 160 105.6 160 160 C107.2 160 54.4 160 0 160 C0 107.2 0 54.4 0 0 Z " fill="#FEFEFE" transform="translate(0,0)"/>
<path d="M0 0 C0.77915771 0.00202423 1.55831543 0.00404846 2.36108398 0.00613403 C3.15635498 0.00517731 3.95162598 0.00422058 4.77099609 0.00323486 C6.45564859 0.0025531 8.1403037 0.00440711 9.82495117 0.00857544 C12.41257595 0.01392378 15.00002714 0.00863034 17.58764648 0.00222778 C19.22045937 0.00288857 20.85327215 0.00416973 22.48608398 0.00613403 C23.2652417 0.0041098 24.04439941 0.00208557 24.84716797 0 C30.30863294 0.02399549 30.30863294 0.02399549 31.42358398 1.13894653 C31.42358398 5.09894653 31.42358398 9.05894653 31.42358398 13.13894653 C18.88358398 13.13894653 6.34358398 13.13894653 -6.57641602 13.13894653 C-6.57641602 0.02889414 -6.57641602 0.02889414 0 0 Z " fill="#5685C0" transform="translate(67.576416015625,59.861053466796875)"/>
<path d="M0 0 C0.77915771 0.00202423 1.55831543 0.00404846 2.36108398 0.00613403 C3.15635498 0.00517731 3.95162598 0.00422058 4.77099609 0.00323486 C6.45564859 0.0025531 8.1403037 0.00440711 9.82495117 0.00857544 C12.41257595 0.01392378 15.00002714 0.00863034 17.58764648 0.00222778 C19.22045937 0.00288857 20.85327215 0.00416973 22.48608398 0.00613403 C23.2652417 0.0041098 24.04439941 0.00208557 24.84716797 0 C30.30863294 0.02399549 30.30863294 0.02399549 31.42358398 1.13894653 C31.52209569 2.97010536 31.55331027 4.80514587 31.54858398 6.63894653 C31.55245117 8.13941528 31.55245117 8.13941528 31.55639648 9.67019653 C31.42358398 12.13894653 31.42358398 12.13894653 30.42358398 13.13894653 C27.68464314 13.22753299 24.97105128 13.25418132 22.23217773 13.23660278 C21.41233902 13.23518784 20.59250031 13.23377289 19.74781799 13.23231506 C17.11887016 13.22669943 14.49000625 13.21414433 11.86108398 13.20144653 C10.08309042 13.19643355 8.30509552 13.19187029 6.52709961 13.18777466 C2.15922853 13.17672492 -2.20857949 13.15944985 -6.57641602 13.13894653 C-6.60328154 11.15985256 -6.62274977 9.18065682 -6.63891602 7.20144653 C-6.65051758 6.0992981 -6.66211914 4.99714966 -6.67407227 3.86160278 C-6.49988805 -0.99465306 -4.30554126 0.01891682 0 0 Z " fill="#5484BF" transform="translate(118.576416015625,110.86105346679688)"/>
<path d="M0 0 C0.77915771 0.00202423 1.55831543 0.00404846 2.36108398 0.00613403 C3.15635498 0.00517731 3.95162598 0.00422058 4.77099609 0.00323486 C6.45564859 0.0025531 8.1403037 0.00440711 9.82495117 0.00857544 C12.41257595 0.01392378 15.00002714 0.00863034 17.58764648 0.00222778 C19.22045937 0.00288857 20.85327215 0.00416973 22.48608398 0.00613403 C23.2652417 0.0041098 24.04439941 0.00208557 24.84716797 0 C30.30863294 0.02399549 30.30863294 0.02399549 31.42358398 1.13894653 C31.49602451 3.15858852 31.50735587 5.18061777 31.48608398 7.20144653 C31.47706055 8.3061731 31.46803711 9.41089966 31.45874023 10.54910278 C31.44713867 11.40375122 31.43553711 12.25839966 31.42358398 13.13894653 C26.17252956 13.16359581 20.92150853 13.18178221 15.67041016 13.19387817 C13.88264378 13.19891872 12.09488154 13.20575107 10.30712891 13.21438599 C7.7430723 13.22646384 5.17907001 13.23217748 2.61499023 13.23660278 C1.40873741 13.24434471 1.40873741 13.24434471 0.17811584 13.25224304 C-1.74043316 13.25243868 -3.6588697 13.20096636 -5.57641602 13.13894653 C-6.57641602 12.13894653 -6.57641602 12.13894653 -6.70922852 9.67019653 C-6.70665039 8.66988403 -6.70407227 7.66957153 -6.70141602 6.63894653 C-6.70399414 5.63863403 -6.70657227 4.63832153 -6.70922852 3.60769653 C-6.46065112 -1.01291862 -4.05074571 0.01779735 0 0 Z " fill="#5484BF" transform="translate(16.576416015625,110.86105346679688)"/>
<path d="M0 0 C1.56047445 0.00015913 3.12095416 0.00585397 4.68139648 0.01586914 C5.91115456 0.01799156 5.91115456 0.01799156 7.16575623 0.02015686 C9.79470406 0.0257725 12.42356797 0.0383276 15.05249023 0.05102539 C16.8304838 0.05603838 18.60847869 0.06060163 20.38647461 0.06469727 C24.75434569 0.07574701 29.12215371 0.09302208 33.48999023 0.11352539 C33.51685576 2.09261937 33.53632399 4.0718151 33.55249023 6.05102539 C33.5640918 7.15317383 33.57569336 8.25532227 33.58764648 9.39086914 C33.48999023 12.11352539 33.48999023 12.11352539 32.48999023 13.11352539 C29.8354283 13.21448103 27.20743848 13.25323538 24.55249023 13.24633789 C23.35958374 13.24777298 23.35958374 13.24777298 22.14257812 13.24923706 C20.45792563 13.24991882 18.77327052 13.24806482 17.08862305 13.24389648 C14.50099827 13.23854814 11.91354708 13.24384158 9.32592773 13.25024414 C7.69311485 13.24958336 6.06030207 13.24830219 4.42749023 13.24633789 C3.64833252 13.24836212 2.8691748 13.25038635 2.06640625 13.25247192 C-3.39505872 13.22847644 -3.39505872 13.22847644 -4.51000977 12.11352539 C-4.60852147 10.28236656 -4.63973606 8.44732606 -4.63500977 6.61352539 C-4.63758789 5.61321289 -4.64016602 4.61290039 -4.64282227 3.58227539 C-4.43374622 -0.30407934 -4.0390506 0.13063633 0 0 Z " fill="#5484BF" transform="translate(14.510009765625,85.886474609375)"/>
<path d="M0 0 C0.77915771 0.00202423 1.55831543 0.00404846 2.36108398 0.00613403 C3.15635498 0.00517731 3.95162598 0.00422058 4.77099609 0.00323486 C6.45564859 0.0025531 8.1403037 0.00440711 9.82495117 0.00857544 C12.41257595 0.01392378 15.00002714 0.00863034 17.58764648 0.00222778 C19.22045937 0.00288857 20.85327215 0.00416973 22.48608398 0.00613403 C23.2652417 0.0041098 24.04439941 0.00208557 24.84716797 0 C30.30863294 0.02399549 30.30863294 0.02399549 31.42358398 1.13894653 C31.52209569 2.97010536 31.55331027 4.80514587 31.54858398 6.63894653 C31.55245117 8.13941528 31.55245117 8.13941528 31.55639648 9.67019653 C31.42358398 12.13894653 31.42358398 12.13894653 30.42358398 13.13894653 C27.68464314 13.22753299 24.97105128 13.25418132 22.23217773 13.23660278 C21.41233902 13.23518784 20.59250031 13.23377289 19.74781799 13.23231506 C17.11887016 13.22669943 14.49000625 13.21414433 11.86108398 13.20144653 C10.08309042 13.19643355 8.30509552 13.19187029 6.52709961 13.18777466 C2.15922853 13.17672492 -2.20857949 13.15944985 -6.57641602 13.13894653 C-6.60328154 11.15985256 -6.62274977 9.18065682 -6.63891602 7.20144653 C-6.65051758 6.0992981 -6.66211914 4.99714966 -6.67407227 3.86160278 C-6.49988805 -0.99465306 -4.30554126 0.01891682 0 0 Z " fill="#5685C0" transform="translate(118.576416015625,59.861053466796875)"/>
<path d="M0 0 C0.77915771 0.00202423 1.55831543 0.00404846 2.36108398 0.00613403 C3.15635498 0.00517731 3.95162598 0.00422058 4.77099609 0.00323486 C6.45564859 0.0025531 8.1403037 0.00440711 9.82495117 0.00857544 C12.41257595 0.01392378 15.00002714 0.00863034 17.58764648 0.00222778 C19.22045937 0.00288857 20.85327215 0.00416973 22.48608398 0.00613403 C23.2652417 0.0041098 24.04439941 0.00208557 24.84716797 0 C30.30863294 0.02399549 30.30863294 0.02399549 31.42358398 1.13894653 C31.52209569 2.97010536 31.55331027 4.80514587 31.54858398 6.63894653 C31.55245117 8.13941528 31.55245117 8.13941528 31.55639648 9.67019653 C31.42358398 12.13894653 31.42358398 12.13894653 30.42358398 13.13894653 C27.76902205 13.23990218 25.14103223 13.27865652 22.48608398 13.27175903 C21.29317749 13.27319412 21.29317749 13.27319412 20.07617188 13.2746582 C18.39151938 13.27533996 16.70686427 13.27348596 15.0222168 13.26931763 C12.43459202 13.26396929 9.84714083 13.26926272 7.25952148 13.27566528 C5.6267086 13.2750045 3.99389582 13.27372334 2.36108398 13.27175903 C1.58192627 13.27378326 0.80276855 13.2758075 0 13.27789307 C-5.46146497 13.25389758 -5.46146497 13.25389758 -6.57641602 12.13894653 C-6.67492772 10.3077877 -6.70614231 8.4727472 -6.70141602 6.63894653 C-6.70399414 5.63863403 -6.70657227 4.63832153 -6.70922852 3.60769653 C-6.46065112 -1.01291862 -4.05074571 0.01779735 0 0 Z " fill="#5484BF" transform="translate(67.576416015625,85.86105346679688)"/>
<path d="M0 0 C0.77915771 0.00202423 1.55831543 0.00404846 2.36108398 0.00613403 C3.15635498 0.00517731 3.95162598 0.00422058 4.77099609 0.00323486 C6.45564859 0.0025531 8.1403037 0.00440711 9.82495117 0.00857544 C12.41257595 0.01392378 15.00002714 0.00863034 17.58764648 0.00222778 C19.22045937 0.00288857 20.85327215 0.00416973 22.48608398 0.00613403 C23.2652417 0.0041098 24.04439941 0.00208557 24.84716797 0 C30.30863294 0.02399549 30.30863294 0.02399549 31.42358398 1.13894653 C31.52209569 2.97010536 31.55331027 4.80514587 31.54858398 6.63894653 C31.55245117 8.13941528 31.55245117 8.13941528 31.55639648 9.67019653 C31.42358398 12.13894653 31.42358398 12.13894653 30.42358398 13.13894653 C27.76902205 13.23990218 25.14103223 13.27865652 22.48608398 13.27175903 C21.29317749 13.27319412 21.29317749 13.27319412 20.07617188 13.2746582 C18.39151938 13.27533996 16.70686427 13.27348596 15.0222168 13.26931763 C12.43459202 13.26396929 9.84714083 13.26926272 7.25952148 13.27566528 C5.6267086 13.2750045 3.99389582 13.27372334 2.36108398 13.27175903 C1.58192627 13.27378326 0.80276855 13.2758075 0 13.27789307 C-5.46146497 13.25389758 -5.46146497 13.25389758 -6.57641602 12.13894653 C-6.67492772 10.3077877 -6.70614231 8.4727472 -6.70141602 6.63894653 C-6.70399414 5.63863403 -6.70657227 4.63832153 -6.70922852 3.60769653 C-6.46065112 -1.01291862 -4.05074571 0.01779735 0 0 Z " fill="#5383BF" transform="translate(118.576416015625,34.861053466796875)"/>
<path d="M0 0 C0.77915771 0.00202423 1.55831543 0.00404846 2.36108398 0.00613403 C3.15635498 0.00517731 3.95162598 0.00422058 4.77099609 0.00323486 C6.45564859 0.0025531 8.1403037 0.00440711 9.82495117 0.00857544 C12.41257595 0.01392378 15.00002714 0.00863034 17.58764648 0.00222778 C19.22045937 0.00288857 20.85327215 0.00416973 22.48608398 0.00613403 C23.2652417 0.0041098 24.04439941 0.00208557 24.84716797 0 C30.30863294 0.02399549 30.30863294 0.02399549 31.42358398 1.13894653 C31.52209569 2.97010536 31.55331027 4.80514587 31.54858398 6.63894653 C31.55245117 8.13941528 31.55245117 8.13941528 31.55639648 9.67019653 C31.42358398 12.13894653 31.42358398 12.13894653 30.42358398 13.13894653 C27.76902205 13.23990218 25.14103223 13.27865652 22.48608398 13.27175903 C21.29317749 13.27319412 21.29317749 13.27319412 20.07617188 13.2746582 C18.39151938 13.27533996 16.70686427 13.27348596 15.0222168 13.26931763 C12.43459202 13.26396929 9.84714083 13.26926272 7.25952148 13.27566528 C5.6267086 13.2750045 3.99389582 13.27372334 2.36108398 13.27175903 C1.58192627 13.27378326 0.80276855 13.2758075 0 13.27789307 C-5.46146497 13.25389758 -5.46146497 13.25389758 -6.57641602 12.13894653 C-6.67492772 10.3077877 -6.70614231 8.4727472 -6.70141602 6.63894653 C-6.70399414 5.63863403 -6.70657227 4.63832153 -6.70922852 3.60769653 C-6.46065112 -1.01291862 -4.05074571 0.01779735 0 0 Z " fill="#5383BF" transform="translate(16.576416015625,34.861053466796875)"/>
</svg>
